<svg xmlns="http://www.w3.org/2000/svg" xmlns:xlink="http://www.w3.org/1999/xlink" width="500" zoomAndPan="magnify" viewBox="0 0 375 374.999991" height="500" preserveAspectRatio="xMidYMid meet" version="1.0"><defs><clipPath id="38c3cb829a"><path d="M 46 18.847656 L 330 18.847656 L 330 356.347656 L 46 356.347656 Z M 46 18.847656 " clip-rule="nonzero"/></clipPath></defs><g clip-path="url(#38c3cb829a)"><path fill="#15803d" d="M 315.222656 335.003906 C 310 342.386719 301.484375 346.792969 292.445312 346.792969 C 280.695312 346.792969 270.160156 339.371094 266.183594 328.316406 L 257.410156 305.304688 L 257.410156 318.867188 C 257.410156 334.265625 244.894531 346.792969 229.511719 346.792969 C 214.128906 346.792969 201.613281 334.265625 201.613281 318.867188 L 201.613281 264 L 182.96875 264.003906 L 182.96875 337.4375 C 182.96875 342.589844 178.796875 346.769531 173.648438 346.769531 C 168.496094 346.769531 164.328125 342.589844 164.328125 337.4375 L 164.328125 264.003906 L 123.183594 264.003906 L 123.183594 337.441406 C 123.183594 342.589844 119.007812 346.769531 113.859375 346.769531 C 108.714844 346.769531 104.539062 342.589844 104.539062 337.441406 L 104.539062 255.53125 L 81.75 132.066406 L 67.542969 119.28125 C 57.3125 110.039062 53.28125 96.0625 57.023438 82.804688 C 60.753906 69.546875 71.476562 59.734375 85.007812 57.207031 L 133.332031 48.160156 C 139.5 40.6875 148.210938 35.253906 158.445312 33.335938 C 168.421875 31.46875 178.503906 33.15625 187.246094 38.070312 L 235.542969 29.023438 C 249.074219 26.492188 262.609375 31.761719 270.878906 42.769531 C 279.148438 53.785156 280.4375 68.269531 274.242188 80.578125 L 234.457031 159.21875 L 243.644531 208.0625 L 251.726562 208.042969 C 269.214844 208.042969 284.871094 219.09375 290.75 235.554688 L 318.699219 309.375 C 318.722656 309.445312 318.746094 309.515625 318.773438 309.585938 C 321.773438 318.121094 320.445312 327.617188 315.222656 335.003906 Z M 327.621094 305.992188 L 299.738281 232.34375 C 292.511719 212.09375 273.214844 198.496094 251.703125 198.496094 L 251.550781 198.496094 L 244.433594 160.636719 L 282.773438 84.875 C 290.609375 69.296875 288.972656 50.960938 278.507812 37.03125 C 269.824219 25.472656 256.613281 18.847656 242.246094 18.847656 C 239.425781 18.847656 236.578125 19.109375 233.785156 19.632812 L 188.703125 28.078125 C 181.738281 24.777344 174.101562 23.046875 166.402344 23.046875 C 163.167969 23.046875 159.902344 23.347656 156.6875 23.949219 C 145.855469 25.980469 135.929688 31.410156 128.367188 39.375 L 83.253906 47.816406 C 66.128906 51.023438 52.554688 63.433594 47.832031 80.210938 C 43.105469 96.996094 48.207031 114.683594 61.164062 126.382812 L 72.957031 136.992188 L 94.996094 256.40625 L 94.996094 337.4375 C 94.996094 347.847656 103.457031 356.316406 113.859375 356.316406 C 124.265625 356.316406 132.726562 347.847656 132.726562 337.4375 L 132.726562 273.558594 L 154.78125 273.558594 L 154.78125 337.4375 C 154.78125 347.847656 163.246094 356.316406 173.648438 356.316406 C 184.050781 356.316406 192.511719 347.847656 192.511719 337.4375 L 192.511719 324.628906 C 195.289062 342.566406 210.824219 356.347656 229.507812 356.347656 C 242.6875 356.347656 254.292969 349.5 260.976562 339.171875 C 267.773438 349.691406 279.585938 356.347656 292.445312 356.347656 C 304.578125 356.347656 316.003906 350.433594 323.011719 340.523438 C 330.015625 330.621094 331.796875 317.871094 327.621094 305.992188 " fill-opacity="1" fill-rule="nonzero"/></g><path fill="#15803d" d="M 170.792969 99.339844 C 183.914062 96.875 192.589844 84.191406 190.132812 71.050781 C 188.027344 58.199219 174.566406 49.003906 161.875 51.675781 C 148.746094 54.132812 140.066406 66.824219 142.519531 79.964844 C 144.648438 92.828125 158.039062 102.007812 170.792969 99.339844 " fill-opacity="1" fill-rule="nonzero"/><path fill="#15803d" d="M 208.644531 82.3125 L 220.488281 71.273438 C 224.257812 67.765625 230.152344 67.96875 233.664062 71.742188 C 237.171875 75.511719 236.960938 81.414062 233.195312 84.925781 L 214.023438 102.789062 C 221.1875 108.078125 226.335938 115.964844 228.03125 125.054688 L 228.796875 129.109375 L 257.605469 72.167969 C 260.621094 66.167969 260.015625 59.359375 255.976562 53.980469 C 251.9375 48.601562 245.578125 46.128906 238.972656 47.363281 L 203.445312 54.019531 C 205.84375 58.179688 207.550781 62.761719 208.460938 67.625 C 209.394531 72.613281 209.410156 77.566406 208.644531 82.3125 " fill-opacity="1" fill-rule="nonzero"/><path fill="#15803d" d="M 273.28125 242.078125 C 273.257812 242.015625 273.234375 241.949219 273.210938 241.886719 C 269.996094 232.804688 261.371094 226.703125 251.746094 226.703125 L 161.496094 226.925781 C 165.359375 237.648438 175.636719 245.347656 187.660156 245.347656 L 248.085938 245.347656 C 251.875 245.3125 255.472656 247.796875 256.792969 251.347656 L 283.636719 321.757812 C 283.664062 321.824219 283.683594 321.894531 283.710938 321.960938 C 285.019531 325.65625 288.527344 328.136719 292.445312 328.136719 C 295.488281 328.136719 298.25 326.707031 300.007812 324.222656 C 301.753906 321.757812 302.191406 318.71875 301.214844 315.867188 L 273.28125 242.078125 " fill-opacity="1" fill-rule="nonzero"/><path fill="#15803d" d="M 220.253906 318.867188 C 220.253906 323.980469 224.40625 328.136719 229.511719 328.136719 C 234.617188 328.136719 238.765625 323.980469 238.765625 318.867188 L 238.765625 264 L 220.253906 264 L 220.253906 318.867188 " fill-opacity="1" fill-rule="nonzero"/><path fill="#15803d" d="M 127.285156 143.914062 C 125.570312 134.738281 127.535156 125.71875 132.128906 118.371094 L 107.378906 108.476562 C 102.597656 106.5625 100.273438 101.140625 102.183594 96.351562 C 104.089844 91.566406 109.511719 89.238281 114.292969 91.152344 L 129.285156 97.144531 C 126.84375 92.945312 125.113281 88.3125 124.195312 83.398438 C 123.273438 78.464844 123.25 73.582031 123.984375 68.890625 L 88.433594 75.542969 C 81.820312 76.78125 76.789062 81.386719 74.964844 87.867188 C 73.136719 94.347656 75.03125 100.914062 80.023438 105.425781 L 128.191406 148.773438 L 127.285156 143.914062 " fill-opacity="1" fill-rule="nonzero"/><path fill="#15803d" d="M 209.707031 128.488281 C 208.128906 119.359375 198.804688 112.925781 189.726562 114.777344 L 159.296875 120.472656 C 150.011719 122.210938 143.871094 131.1875 145.609375 140.484375 L 158.277344 208.273438 L 224.679688 208.109375 L 209.707031 128.488281 " fill-opacity="1" fill-rule="nonzero"/><path fill="#15803d" d="M 133.828125 178.9375 L 104.484375 152.527344 L 121.617188 245.347656 L 150.496094 245.347656 C 144.882812 237.859375 141.484375 228.628906 141.246094 218.632812 L 133.828125 178.9375 " fill-opacity="1" fill-rule="nonzero"/></svg>