<svg xmlns="http://www.w3.org/2000/svg" xmlns:xlink="http://www.w3.org/1999/xlink" width="500" zoomAndPan="magnify" viewBox="0 0 375 374.999991" height="500" preserveAspectRatio="xMidYMid meet" version="1.0"><defs><clipPath id="21101594d4"><path d="M 28.171875 243 L 343 243 L 343 346.921875 L 28.171875 346.921875 Z M 28.171875 243 " clip-rule="nonzero"/></clipPath><clipPath id="f9b0bb1cc3"><path d="M 31 28.171875 L 346.921875 28.171875 L 346.921875 132 L 31 132 Z M 31 28.171875 " clip-rule="nonzero"/></clipPath></defs><path fill="#15803d" d="M 187.300781 145.777344 C 164.175781 145.777344 145.53125 164.425781 145.53125 187.546875 C 145.53125 210.671875 164.175781 229.320312 187.300781 229.320312 C 210.421875 229.320312 229.070312 210.671875 229.070312 187.546875 C 229.070312 164.425781 210.421875 145.777344 187.300781 145.777344 Z M 189.785156 207.6875 L 189.289062 214.402344 L 182.824219 213.902344 L 183.320312 207.6875 C 178.847656 207.191406 174.621094 205.699219 172.382812 204.207031 L 174.867188 196.75 C 177.601562 198.488281 181.332031 199.980469 185.558594 200.230469 C 189.289062 200.476562 192.023438 198.984375 192.273438 196.5 C 192.519531 194.011719 190.53125 192.273438 185.558594 190.285156 C 178.597656 187.546875 174.121094 183.820312 174.371094 177.601562 C 174.621094 171.636719 179.09375 167.410156 186.304688 166.664062 L 186.554688 160.449219 L 193.019531 160.945312 L 192.769531 166.664062 C 196.996094 167.160156 199.980469 168.15625 202.21875 169.398438 L 199.730469 176.609375 C 198.238281 175.613281 195.257812 174.121094 190.285156 173.625 C 186.058594 173.375 184.566406 175.117188 184.316406 177.105469 C 184.066406 179.34375 186.304688 180.835938 192.023438 183.074219 C 199.730469 186.304688 202.46875 190.035156 202.21875 196.003906 C 201.96875 202.21875 197.492188 206.941406 189.785156 207.6875 Z M 189.785156 207.6875 " fill-opacity="1" fill-rule="nonzero"/><path fill="#15803d" d="M 187.300781 132.847656 C 156.964844 132.847656 132.601562 157.214844 132.601562 187.546875 C 132.601562 217.882812 156.964844 242.25 187.300781 242.25 C 217.632812 242.25 242 217.632812 242 187.546875 C 242 157.464844 217.632812 132.847656 187.300781 132.847656 Z M 187.300781 234.292969 C 161.441406 234.292969 140.558594 213.40625 140.558594 187.546875 C 140.558594 161.691406 161.441406 140.804688 187.300781 140.804688 C 213.15625 140.804688 234.042969 161.691406 234.042969 187.546875 C 234.042969 213.40625 213.15625 234.292969 187.300781 234.292969 Z M 187.300781 234.292969 " fill-opacity="1" fill-rule="nonzero"/><g clip-path="url(#21101594d4)"><path fill="#15803d" d="M 340.957031 282.277344 C 336.730469 274.074219 323.550781 274.074219 319.324219 274.074219 C 296.203125 274.074219 262.886719 283.273438 249.457031 287.003906 C 249.457031 288.992188 247.46875 294.460938 238.269531 299.433594 C 233.792969 301.921875 228.820312 303.910156 223.847656 305.402344 C 218.875 306.894531 213.902344 308.136719 209.179688 309.628906 C 206.695312 310.375 204.207031 311.121094 201.722656 311.867188 C 200.476562 312.113281 198.984375 312.363281 197.496094 312.613281 L 196.5 312.613281 C 196.003906 312.613281 195.753906 312.613281 195.503906 312.613281 C 194.757812 312.613281 194.011719 312.613281 193.265625 312.613281 C 190.53125 312.363281 187.796875 311.617188 185.3125 311.121094 C 182.824219 310.621094 180.339844 309.878906 177.851562 309.378906 C 172.878906 308.136719 167.90625 307.390625 162.933594 306.644531 C 157.960938 305.898438 152.988281 305.402344 147.765625 305.152344 C 142.546875 304.90625 137.324219 304.65625 132.351562 302.914062 C 137.574219 303.414062 142.546875 303.164062 147.519531 302.667969 C 152.738281 302.417969 157.960938 302.167969 163.183594 302.667969 C 168.402344 302.914062 173.625 303.660156 178.597656 304.65625 C 181.085938 305.152344 183.570312 305.648438 186.304688 306.148438 C 188.792969 306.644531 191.277344 307.140625 193.515625 307.390625 C 198.238281 307.886719 202.714844 306.394531 207.6875 305.152344 C 212.660156 303.910156 217.882812 303.164062 222.605469 301.671875 C 242 295.953125 244.984375 289.488281 245.230469 287.25 C 246.226562 279.792969 234.042969 274.324219 214.648438 274.324219 C 202.964844 274.324219 191.777344 276.558594 191.277344 276.808594 C 187.546875 277.554688 184.316406 277.304688 180.089844 276.0625 C 171.386719 273.578125 163.929688 268.355469 155.972656 262.886719 C 148.015625 257.414062 139.5625 251.695312 129.617188 248.714844 C 113.207031 243.738281 97.542969 242.746094 83.867188 245.230469 C 77.15625 246.476562 70.691406 248.960938 64.472656 251.199219 C 58.753906 253.1875 53.285156 255.175781 47.566406 256.421875 C 46.324219 256.667969 45.082031 257.167969 43.589844 257.414062 C 41.101562 258.660156 37.871094 259.652344 35.632812 259.652344 C 34.886719 259.652344 34.636719 259.652344 34.390625 259.402344 C 32.898438 258.90625 31.15625 259.402344 29.914062 260.398438 C 28.671875 261.394531 28.171875 263.382812 28.171875 264.625 C 28.171875 280.785156 28.171875 319.824219 28.171875 322.804688 C 28.171875 325.292969 31.15625 329.519531 35.136719 329.519531 C 37.125 329.519531 39.113281 328.773438 41.101562 328.277344 C 42.097656 328.027344 43.09375 327.53125 43.835938 327.53125 L 45.082031 327.28125 C 53.285156 326.039062 61.988281 324.796875 69.945312 324.796875 C 81.628906 324.796875 139.066406 339.464844 160.199219 345.183594 L 160.449219 345.183594 C 165.171875 346.179688 169.648438 346.675781 173.875 346.675781 C 183.320312 346.675781 188.292969 344.4375 188.792969 344.1875 C 196.003906 340.957031 209.179688 337.226562 209.179688 337.226562 C 232.054688 330.761719 321.5625 302.914062 322.308594 302.667969 C 334.742188 299.1875 340.957031 294.960938 342.199219 289.488281 C 343.441406 286.503906 342.449219 284.019531 340.957031 282.277344 Z M 340.957031 282.277344 " fill-opacity="1" fill-rule="nonzero"/></g><g clip-path="url(#f9b0bb1cc3)"><path fill="#15803d" d="M 33.644531 92.820312 C 37.871094 101.023438 51.046875 101.023438 55.273438 101.023438 C 78.398438 101.023438 111.714844 91.824219 125.140625 88.09375 C 125.140625 86.105469 127.128906 80.636719 136.328125 75.664062 C 140.804688 73.175781 145.777344 71.1875 150.75 69.695312 C 155.722656 68.203125 160.695312 66.960938 165.421875 65.46875 C 167.90625 64.722656 170.394531 63.976562 172.878906 63.230469 C 174.121094 62.984375 175.613281 62.734375 177.105469 62.484375 L 178.101562 62.484375 C 178.597656 62.484375 178.847656 62.484375 179.09375 62.484375 C 179.839844 62.484375 180.585938 62.484375 181.332031 62.484375 C 184.066406 62.734375 186.804688 63.480469 189.289062 63.976562 C 191.777344 64.472656 194.261719 65.21875 196.75 65.71875 C 201.722656 66.960938 206.695312 67.707031 211.667969 68.453125 C 216.640625 69.199219 221.613281 69.695312 226.832031 69.945312 C 232.054688 70.191406 237.277344 70.441406 242.25 72.183594 C 237.027344 71.683594 232.054688 71.933594 227.082031 72.429688 C 221.859375 72.679688 216.640625 72.929688 211.417969 72.429688 C 206.195312 72.183594 200.976562 71.4375 196.003906 70.441406 C 193.515625 69.945312 191.03125 69.445312 188.292969 68.949219 C 185.808594 68.453125 183.320312 67.957031 181.085938 67.707031 C 176.359375 67.210938 171.882812 68.703125 166.910156 69.945312 C 161.9375 71.1875 156.71875 71.933594 151.992188 73.425781 C 132.601562 79.144531 129.617188 85.609375 129.367188 87.847656 C 128.375 95.304688 140.558594 100.773438 159.949219 100.773438 C 171.636719 100.773438 182.824219 98.539062 183.320312 98.289062 C 187.050781 97.542969 190.285156 97.792969 194.511719 99.035156 C 203.210938 101.519531 210.671875 106.742188 218.628906 112.210938 C 226.585938 117.683594 235.039062 123.402344 244.984375 126.382812 C 261.394531 131.355469 277.058594 132.351562 290.730469 129.867188 C 297.445312 128.621094 303.910156 126.136719 310.125 123.898438 C 315.84375 121.910156 321.3125 119.921875 327.03125 118.675781 C 328.277344 118.429688 329.519531 118.179688 331.011719 117.683594 C 333.746094 116.9375 336.976562 115.941406 339.464844 115.941406 C 340.210938 115.941406 340.460938 115.941406 340.707031 116.191406 C 342.199219 116.6875 343.941406 116.191406 345.183594 115.195312 C 346.425781 114.203125 346.921875 112.210938 346.921875 110.96875 C 346.921875 92.074219 346.921875 62.238281 346.921875 52.789062 C 346.921875 50.300781 343.941406 46.074219 339.714844 46.074219 C 337.722656 46.074219 335.734375 46.820312 333.746094 47.320312 C 332.75 47.566406 331.757812 48.066406 331.011719 48.066406 L 329.769531 48.3125 C 321.5625 49.554688 312.859375 50.800781 304.90625 50.800781 C 293.21875 50.800781 235.785156 36.128906 214.648438 30.410156 L 214.402344 30.410156 C 209.179688 28.917969 204.703125 28.421875 200.476562 28.421875 C 191.03125 28.421875 186.058594 30.660156 185.558594 30.910156 C 178.347656 34.140625 165.171875 37.871094 165.171875 37.871094 C 142.046875 44.335938 52.789062 72.183594 51.792969 72.429688 C 39.363281 75.910156 33.144531 80.136719 31.902344 85.609375 C 31.15625 88.59375 32.152344 91.078125 33.644531 92.820312 Z M 33.644531 92.820312 " fill-opacity="1" fill-rule="nonzero"/></g></svg>