<svg xmlns="http://www.w3.org/2000/svg" xmlns:xlink="http://www.w3.org/1999/xlink" width="500" zoomAndPan="magnify" viewBox="0 0 375 374.999991" height="500" preserveAspectRatio="xMidYMid meet" version="1.0"><defs><clipPath id="9e37ab4562"><path d="M 26.679688 26.679688 L 348.429688 26.679688 L 348.429688 348.429688 L 26.679688 348.429688 Z M 26.679688 26.679688 " clip-rule="nonzero"/></clipPath></defs><g clip-path="url(#9e37ab4562)"><path fill="#15803d" d="M 187.554688 26.679688 C 98.847656 26.679688 26.679688 98.847656 26.679688 187.554688 C 26.679688 276.261719 98.847656 348.429688 187.554688 348.429688 C 276.261719 348.429688 348.429688 276.261719 348.429688 187.554688 C 348.429688 98.847656 276.261719 26.679688 187.554688 26.679688 Z M 259.136719 191.410156 C 258.105469 195.246094 255.648438 198.449219 252.210938 200.433594 L 166.386719 249.988281 C 164.125 251.289062 161.558594 251.972656 158.949219 251.972656 C 150.742188 251.972656 144.074219 245.308594 144.074219 237.113281 L 144.074219 138.011719 C 144.074219 135.402344 144.761719 132.828125 146.0625 130.570312 C 150.011719 123.722656 159.511719 121.15625 166.378906 125.128906 L 252.203125 174.683594 C 254.472656 175.988281 256.34375 177.875 257.644531 180.125 C 259.632812 183.554688 260.183594 187.570312 259.136719 191.410156 Z M 259.136719 191.410156 " fill-opacity="1" fill-rule="nonzero"/></g></svg>