<svg xmlns="http://www.w3.org/2000/svg" viewBox="0 0 1523 318"><defs><style>.cls-1{font-size:51.07px;font-family:Gotham-Medium, Gotham;font-weight:500;letter-spacing:0.5em;}.cls-1,.cls-2{fill:#fff;}.cls-3,.cls-4{fill:none;stroke:#fff;stroke-miterlimit:10;}.cls-3{stroke-width:10.03px;}.cls-4{stroke-width:8.36px;}</style></defs><g id="Artwork"><text class="cls-1" transform="translate(1155.46 295.53)">ONLINE</text><path class="cls-2" d="M398.41,238.1c-8,5.45-17.32,8.66-29.5,8.66-28.22,0-48.1-17.31-48.1-51.3V102.14h-18c-5.45,0-9-3.2-9-8.65V89.64c0-5.45,3.53-8.66,9-8.66h18V36.09c0-4.81,2.88-7.7,8.66-9.3l6.73-1.6c7.05-1.93,9.94,1.92,9.94,8.65V81h40.72c5.78,0,9.3,3.21,9.3,8.66v3.85c0,5.45-3.52,8.65-9.3,8.65H346.14v92.35c0,20.85,9.94,29.83,25.33,29.83,6.41,0,11.22-2.25,16.68-5.46,6.41-3.84,9.94-1.6,12.82,3.21l1.93,3.53C406.42,231.37,401.93,235.86,398.41,238.1Z"/><path class="cls-2" d="M499.09,224.64c14.11,0,32.07-3.85,49.38-18.28,5.78-4.81,9.94-4.17,13.79,0l3.21,2.88c4.81,5.13,2.56,9.62-.64,12.83-19.24,18.6-46.5,24.69-65.74,24.69-43.93,0-85-30.46-85-83.37,0-48.42,34.63-84.65,80.8-84.65,22.77,0,42,8,55.8,21.48,15.71,15.39,24,36.56,24,59.32,0,6.09-4.49,10.26-10.91,10.26H440.09C443,205.08,469.91,224.64,499.09,224.64Zm-58.68-76H548.79c-1.92-13.15-7-24.37-14.75-32.07-9.3-10.26-22.76-15.71-39.12-15.71C465.74,100.86,444.58,119.46,440.41,148.64Z"/><path class="cls-2" d="M612.6,233.61V25.19c0-4.81,2.89-7.7,8.66-9.3L628,14.28c7.06-1.92,9.94,1.93,9.94,8.66V233.61c0,5.46-3.21,9.3-8.66,9.3h-8C615.81,242.91,612.6,239.07,612.6,233.61Z"/><path class="cls-2" d="M817.5,144.47v89.14c0,6.1-2.57,9.3-8.34,9.3h-6.41c-5.77,0-8.66-3.84-8.66-9.3V221.75a72.69,72.69,0,0,1-55.15,25c-37.2,0-62.21-20.84-62.21-52.27,0-32.06,27.26-53.55,68-53.55,18.92,0,34.95,5.13,48.42,11.55V139.66c0-23.41-17.64-38.8-43.93-38.8a81.12,81.12,0,0,0-48.42,16.68c-5.13,3.84-9,1.92-12.19-2.25l-1.92-2.56c-4.17-5.45-1.92-10.91,2.56-14.11C711.68,82.91,730,78.74,750.48,78.74,792.81,78.74,817.5,102.14,817.5,144.47Zm-24,40.08V174.29c-10.26-5.13-28.22-12.5-47.78-12.5-26.29,0-43.61,13.46-43.61,33,0,18.28,16,30.15,39.76,30.15C767.48,225,793.45,209.56,793.45,184.55Z"/><path class="cls-2" d="M1119.55,145.43v88.18c0,5.46-3.21,9.3-8.66,9.3h-8.34c-5.45,0-8.33-3.84-8.33-9.3V147.68c0-28.22-15.71-46.5-42.65-46.5s-46.5,18.28-46.5,46.5v85.93c0,5.46-2.88,9.3-8.33,9.3H988.4c-5.45,0-8.66-3.84-8.66-9.3V147.68c0-28.22-15.71-46.5-42.64-46.5s-46.5,18.28-46.5,46.5v85.93c0,5.46-2.89,9.3-8.66,9.3h-8c-5.46,0-8.66-3.84-8.66-9.3V90.28c0-5.77,3.2-9.3,8.66-9.3h6.41c5.45,0,8.66,3.53,8.66,9.3v13.15C900.22,88,918.5,78.74,941.91,78.74c26.61,0,45.85,12.18,55.79,32.06,10.9-19.56,31.42-32.06,58.36-32.06C1095.82,78.74,1119.55,106.31,1119.55,145.43Z"/><path class="cls-2" d="M1296.22,144.47v89.14c0,6.1-2.56,9.3-8.33,9.3h-6.42c-5.77,0-8.65-3.84-8.65-9.3V221.75a72.69,72.69,0,0,1-55.16,25c-37.19,0-62.2-20.84-62.2-52.27,0-32.06,27.25-53.55,68-53.55,18.91,0,35,5.13,48.41,11.55V139.66c0-23.41-17.63-38.8-43.93-38.8a81.09,81.09,0,0,0-48.41,16.68c-5.14,3.84-9,1.92-12.19-2.25l-1.92-2.56c-4.17-5.45-1.93-10.91,2.56-14.11,22.45-15.71,40.73-19.88,61.25-19.88C1271.53,78.74,1296.22,102.14,1296.22,144.47Zm-24,40.08V174.29c-10.27-5.13-28.22-12.5-47.78-12.5-26.3,0-43.61,13.46-43.61,33,0,18.28,16,30.15,39.76,30.15C1246.2,225,1272.18,209.56,1272.18,184.55Z"/><path class="cls-2" d="M1486.37,145.43v88.18c0,5.46-2.89,9.3-8.66,9.3h-8c-5.45,0-8.65-3.84-8.65-9.3V147.68c0-28.22-17.32-46.5-44.58-46.5-27.57,0-47.13,18.28-47.13,46.5v85.93c0,5.46-2.89,9.3-8.66,9.3h-8c-5.45,0-8.65-3.84-8.65-9.3V90.28c0-5.77,3.2-9.3,8.65-9.3h6.42c5.45,0,8.65,3.53,8.65,9.3v13.15C1379,88,1397.22,78.74,1421,78.74,1461.36,78.74,1486.37,106.31,1486.37,145.43Z"/><path class="cls-3" d="M249.76,156.08c0,49.59-40.26,92.16-89.8,89.8-53.37-2.54-80.84-50.67-80.84-50.67s-11.54,3.39-18.89,4.13c-18.93,1.89-39.3-3.14-39.3-3.14s49.23-30.71,49.23-40.12a89.8,89.8,0,1,1,179.6,0Z"/><polyline class="cls-4" points="178.82 119.49 198.56 119.49 198.56 137.74"/><path class="cls-4" d="M179.76,165.82a28.11,28.11,0,1,1-8.54-20.18A28.11,28.11,0,0,1,179.76,165.82Z"/><line class="cls-4" x1="195.31" y1="122.74" x2="171.22" y2="145.64"/></g></svg>